<svg width="72" height="72" viewBox="0 0 72 72" fill="none" xmlns="http://www.w3.org/2000/svg">
<rect width="72" height="72" fill="#1E1E1E" style="fill:#1E1E1E;fill:color(display-p3 0.1176 0.1176 0.1176);fill-opacity:1;"/>
<g id="Home page" clip-path="url(#clip0_0_1)">
<rect width="1920" height="5677" transform="translate(-983 -5477)" fill="#F6E300" style="fill:#F6E300;fill:color(display-p3 0.9647 0.8902 0.0000);fill-opacity:1;"/>
<g id="Group 119">
<g id="akar-icons:twitter-fill">
<g id="Group">
<path id="Vector" d="M70.8461 14.6988C68.3601 15.8004 65.6895 16.5448 62.8819 16.8812C65.7788 15.1478 67.9461 12.4196 68.9793 9.20578C66.2577 10.8224 63.2789 11.9603 60.1726 12.5701C58.0837 10.3397 55.3168 8.86139 52.3016 8.36462C49.2864 7.86786 46.1916 8.38045 43.4976 9.82283C40.8036 11.2652 38.6611 13.5567 37.4029 16.3414C36.1446 19.1262 35.8409 22.2485 36.539 25.2235C31.0241 24.9466 25.6291 23.5132 20.7041 21.0163C15.7791 18.5195 11.4341 15.0149 7.95121 10.7301C6.7603 12.7845 6.07553 15.1663 6.07553 17.7029C6.0742 19.9865 6.63654 22.235 7.71267 24.2491C8.78879 26.2632 10.3454 27.9806 12.2444 29.2488C10.0421 29.1787 7.88831 28.5836 5.96239 27.513V27.6917C5.96217 30.8944 7.07003 33.9987 9.098 36.4776C11.126 38.9565 13.9491 40.6575 17.0885 41.2919C15.0454 41.8448 12.9034 41.9262 10.8243 41.53C11.71 44.2858 13.4353 46.6957 15.7587 48.4222C18.0821 50.1487 20.8872 51.1055 23.7814 51.1585C18.8684 55.0153 12.8009 57.1074 6.55487 57.0982C5.44846 57.0985 4.34298 57.0339 3.24414 56.9047C9.58417 60.9811 16.9644 63.1445 24.5019 63.1361C50.0171 63.1361 63.9656 42.0034 63.9656 23.6753C63.9656 23.0799 63.9507 22.4785 63.9239 21.883C66.6371 19.9209 68.9791 17.4912 70.8401 14.7078L70.8461 14.6988Z" fill="#FF0000" style="fill:#FF0000;fill:color(display-p3 1.0000 0.0000 0.0000);fill-opacity:1;"/>
</g>
</g>
</g>
</g>
<defs>
<clipPath id="clip0_0_1">
<rect width="1920" height="5677" fill="white" style="fill:white;fill:white;fill-opacity:1;" transform="translate(-983 -5477)"/>
</clipPath>
</defs>
</svg>
