<svg width="72" height="72" viewBox="0 0 72 72" fill="none" xmlns="http://www.w3.org/2000/svg">
<g clip-path="url(#clip0_2_2498)">
<path d="M60.491 12.9831C55.8577 10.8567 50.9685 9.33911 45.9455 8.46807C45.9 8.4604 45.8533 8.46702 45.8117 8.48702C45.7701 8.50701 45.7357 8.53939 45.7133 8.57972C45.0836 9.69619 44.3869 11.1565 43.9002 12.2998C38.4857 11.4781 32.9783 11.4781 27.5639 12.2998C27.0209 11.0262 26.4066 9.78423 25.7239 8.57972C25.701 8.53983 25.6665 8.50782 25.6251 8.48789C25.5836 8.46797 25.5371 8.46105 25.4917 8.46807C20.4675 9.33445 15.5774 10.8529 10.9462 12.9831C10.9066 12.9982 10.8734 13.0266 10.8524 13.0635C1.59013 26.9033 -0.950973 40.4038 0.295016 53.7345C0.299482 53.797 0.339675 53.8596 0.3888 53.8998C5.78239 57.895 11.8152 60.9454 18.2301 62.9209C18.2754 62.9352 18.3241 62.9347 18.369 62.9194C18.414 62.9042 18.453 62.8749 18.4802 62.836C19.8557 60.9604 21.0794 58.982 22.1333 56.9009C22.1553 56.858 22.1628 56.8092 22.1548 56.7617C22.1467 56.7142 22.1235 56.6706 22.0887 56.6374C22.0656 56.6156 22.0382 56.5988 22.0083 56.5882C20.0842 55.8488 18.2207 54.9603 16.4348 53.931C16.3849 53.9028 16.3478 53.8564 16.3312 53.8015C16.3146 53.7466 16.3197 53.6875 16.3455 53.6363C16.3607 53.603 16.3837 53.5739 16.4125 53.5514C16.7876 53.2701 17.1628 52.9753 17.52 52.6806C17.5516 52.6552 17.5895 52.6389 17.6296 52.6334C17.6697 52.6279 17.7106 52.6334 17.7478 52.6493C29.444 57.9905 42.1049 57.9905 53.6582 52.6493C53.6968 52.6326 53.7391 52.6267 53.7808 52.6322C53.8225 52.6377 53.8619 52.6544 53.8949 52.6806C54.2521 52.9753 54.6273 53.2701 55.0024 53.5514C55.0328 53.5736 55.0572 53.603 55.0735 53.637C55.0897 53.671 55.0973 53.7084 55.0955 53.746C55.0938 53.7836 55.0827 53.8202 55.0633 53.8525C55.044 53.8848 55.0169 53.9118 54.9845 53.931C53.2027 54.9698 51.3369 55.8571 49.4066 56.5838C49.3758 56.5949 49.3479 56.6127 49.3247 56.6359C49.3016 56.659 49.2838 56.687 49.2726 56.7178C49.2623 56.7476 49.2582 56.7792 49.2605 56.8107C49.2628 56.8422 49.2715 56.8728 49.286 56.9009C50.3579 58.9775 51.586 60.9604 52.9347 62.836C52.9619 62.8749 53.0009 62.9042 53.0458 62.9194C53.0908 62.9347 53.1395 62.9352 53.1848 62.9209C59.6104 60.9516 65.653 57.9008 71.0529 53.8998C71.0799 53.881 71.1024 53.8565 71.1186 53.8279C71.1349 53.7992 71.1445 53.7673 71.1467 53.7345C72.6383 38.3227 68.6502 24.9339 60.5803 13.068C60.5722 13.0484 60.56 13.0307 60.5447 13.0161C60.5293 13.0014 60.511 12.9902 60.491 12.9831ZM23.8795 45.6155C20.3559 45.6155 17.4575 42.3822 17.4575 38.4165C17.4575 34.4463 20.3023 31.2129 23.8795 31.2129C27.4835 31.2129 30.355 34.4731 30.3015 38.4165C30.3015 42.3822 27.4567 45.6155 23.8795 45.6155ZM47.6203 45.6155C44.1011 45.6155 41.1983 42.3822 41.1983 38.4165C41.1983 34.4463 44.0431 31.2129 47.6203 31.2129C51.2242 31.2129 54.1003 34.4731 54.0422 38.4165C54.0422 42.3822 51.2242 45.6155 47.6203 45.6155Z" fill="#FF0000" style="fill:#FF0000;fill:color(display-p3 1.0000 0.0000 0.0000);fill-opacity:1;"/>
</g>
<defs>
<clipPath id="clip0_2_2498">
<rect width="71.4545" height="71.4545" fill="white" style="fill:white;fill:white;fill-opacity:1;" transform="translate(0 0.000488281)"/>
</clipPath>
</defs>
</svg>
